#!OML:ASF X:\für Bonn\!DataBase\2005_08_10_Bjorn_Final\c3d\bjorn.ASF
:FULLY-SPECIFIED
:DEGREES
166
root -0.426344 17.7733 6.41634 -186.442 2.91222 177.358
lowerback 6.00632 -2.49771 -0.380719
upperback 16.1948 0.229808 -3.45875
thorax 14.4646 1.69291 -3.28564
lowerneck -3.31244 7.55422 -7.08287
upperneck 0.819698 10.8377 -7.40086
head 0.849603 5.42062 -0.949454
rclavicle 1.15295e-014 3.22031e-014
rhumerus -32.5155 -4.22584 -80.05
rradius 62.9191
rwrist 2.12317
rhand -14.7131 21.2632
rfingers 7.12502
rthumb 11.4415 -8.40457
lclavicle 1.15295e-014 3.22031e-014
lhumerus -377.54 -27.1846 -294.973
lradius 75.2204
lwrist -6.65771
lhand -50.4663 -15.9112
lfingers 7.12502
lthumb -23.0366 12.732
rfemur -34.7118 -2.07717 14.9001
rtibia 50.1442
rfoot -10.2139 12.4081
rtoes -8.76151
lfemur 4.18902 2.23619 -18.8447
ltibia 52.5649
lfoot -18.5154 -5.00999
ltoes -33.6879
167
root -0.477515 17.6794 6.51136 -186.358 3.32335 176.677
lowerback 6.04742 -2.55086 -0.911848
upperback 16.3655 0.251375 -3.54572
thorax 14.6731 1.67116 -3.08199
lowerneck -3.68785 7.37473 -6.96459
upperneck 0.745484 10.6273 -7.49829
head 0.900326 5.31145 -0.985121
rclavicle 9.93923e-015 3.97569e-015
rhumerus -31.7845 -6.16477 -81.1222
rradius 60.9999
rwrist 2.22103
rhand -14.6406 21.7557
rfingers 7.12502
rthumb 11.5113 -7.90822
lclavicle 9.93923e-015 3.97569e-015
lhumerus -378.692 -25.9317 -293.321
lradius 73.6316
lwrist -6.50806
lhand -50.1381 -16.1211
lfingers 7.12502
lthumb -22.7217 12.5611
rfemur -36.0324 -1.77223 14.1179
rtibia 51.3572
rfoot -10.4982 12.3913
rtoes -9.86468
lfemur 5.59506 2.82574 -19.9708
ltibia 50.4216
lfoot -21.4336 -4.2059
ltoes -33.0975
168
root -0.525134 17.5938 6.60331 -186.306 3.67593 176.069
lowerback 6.12137 -2.61841 -1.41112
upperback 16.5056 0.236823 -3.60905
thorax 14.8209 1.62751 -2.87317
lowerneck -3.88072 7.1941 -6.77067
upperneck 0.520665 10.3908 -7.72505
head 0.884703 5.20246 -1.08428
rclavicle 1.35174e-014 1.90833e-014
rhumerus -31.135 -8.19671 -82.1324
rradius 59.1157
rwrist 2.38684
rhand -14.4978 22.2691
rfingers 7.12502
rthumb 11.6491 -7.38703
lclavicle 1.35174e-014 1.90833e-014
lhumerus -379.863 -24.6454 -291.725
lradius 72.0074
lwrist -6.38942
lhand -49.8106 -16.4938
lfingers 7.12502
lthumb -22.4073 12.2265
rfemur -37.2134 -1.45904 13.4024
rtibia 52.4501
rfoot -10.7813 12.2671
rtoes -10.4622
lfemur 6.66575 3.50502 -20.9278
ltibia 48.7404
lfoot -24.0649 -3.2068
ltoes -32.396
169
root -0.570219 17.5185 6.6917 -186.245 3.98895 175.681
lowerback 6.19878 -2.69699 -1.6908
upperback 16.6187 0.18169 -3.64082
thorax 14.925 1.58338 -2.75504
lowerneck -3.91623 6.99069 -6.36723
upperneck 0.163032 10.0999 -8.15477
head 0.822899 5.07784 -1.28919
rclavicle 1.68967e-014 2.54444e-014
rhumerus -30.6956 -10.1392 -83.1255
rradius 57.4548
rwrist 2.49942
rhand -14.4171 22.6577
rfingers 7.12502
rthumb 11.7269 -6.99409
lclavicle 1.68967e-014 2.54444e-014
lhumerus -380.959 -23.4141 -290.288
lradius 70.3622
lwrist -6.27477
lhand -49.5173 -16.8709
lfingers 7.12502
lthumb -22.1258 11.8831
rfemur -38.265 -1.19508 12.9387
rtibia 53.3971
rfoot -11.0683 12.0542
rtoes -10.6712
lfemur 7.32255 4.24218 -21.5599
ltibia 47.5763
lfoot -26.4596 -2.09486
ltoes -31.9078
170
root -0.612289 17.4503 6.77761 -186.182 4.2601 175.458
lowerback 6.29783 -2.78928 -1.84631
upperback 16.6956 0.0759615 -3.61881
thorax 14.9616 1.5174 -2.65008
lowerneck -3.89652 6.81963 -5.97276
upperneck -0.138167 9.84949 -8.55595
head 0.766078 4.97164 -1.48631
rclavicle 7.55382e-015 -1.78906e-014
rhumerus -30.4385 -11.6614 -84.0573
rradius 55.9336
rwrist 2.49655
rhand -14.6548 22.9486
rfingers 7.12502
rthumb 11.4977 -6.71604
lclavicle 7.55382e-015 -1.78906e-014
lhumerus -381.985 -22.0549 -288.882
lradius 68.6231
lwrist -6.32309
lhand -49.2826 -17.4251
lfingers 7.12502
lthumb -21.9004 11.3554
rfemur -39.2077 -0.9349 12.6458
rtibia 54.2191
rfoot -11.3382 11.7621
rtoes -10.7798
lfemur 7.60467 4.99285 -21.9486
ltibia 46.9084
lfoot -28.6279 -0.998093
ltoes -31.4526
171
root -0.65278 17.3841 6.86077 -186.114 4.51149 175.251
lowerback 6.37657 -2.86384 -2.00038
upperback 16.7502 -0.0147342 -3.59341
thorax 14.9835 1.45482 -2.54165
lowerneck -3.88503 6.68018 -5.61503
upperneck -0.359175 9.63779 -8.81388
head 0.724511 4.87823 -1.63216
rclavicle 5.1684e-015 9.14409e-015
rhumerus -30.1717 -13.0327 -84.9656
rradius 54.3733
rwrist 2.47829
rhand -15.2651 23.3671
rfingers 7.12502
rthumb 10.9091 -6.32952
lclavicle 5.1684e-015 9.14409e-015
lhumerus -382.914 -20.7449 -287.589
lradius 66.8886
lwrist -6.40448
lhand -49.1328 -18.0531
lfingers 7.12502
lthumb -21.7566 10.7442
rfemur -40.0966 -0.697704 12.372
rtibia 54.9534
rfoot -11.6125 11.4367
rtoes -11.5198
lfemur 7.5798 5.76586 -22.2734
ltibia 46.6668
lfoot -30.4935 0.0756694
ltoes -30.8778
172
root -0.69277 17.3194 6.94102 -186.041 4.76692 175.05
lowerback 6.42577 -2.92031 -2.10949
upperback 16.7906 -0.084071 -3.58676
thorax 15.006 1.40844 -2.47819
lowerneck -4.03937 6.58685 -5.39331
upperneck -0.378432 9.50066 -8.75062
head 0.749149 4.80316 -1.64481
rclavicle 1.86858e-014 1.66979e-014
rhumerus -29.8574 -14.4069 -85.818
rradius 52.8062
rwrist 2.5196
rhand -15.9106 23.7868
rfingers 7.12502
rthumb 10.2864 -5.94162
lclavicle 1.86858e-014 1.66979e-014
lhumerus -383.737 -19.5894 -286.462
lradius 65.2234
lwrist -6.515
lhand -49.1217 -18.6977
lfingers 7.12502
lthumb -21.7459 10.1008
rfemur -40.9392 -0.463087 12.0924
rtibia 55.5776
rfoot -11.8444 11.1119
rtoes -12.5969
lfemur 7.34323 6.49966 -22.5876
ltibia 46.6705
lfoot -31.937 1.21146
ltoes -30.7246
173
root -0.730874 17.2577 7.01813 -186 4.96975 174.851
lowerback 6.48527 -2.96897 -2.20924
upperback 16.835 -0.136605 -3.58794
thorax 15.0283 1.37457 -2.42704
lowerneck -4.31648 6.50764 -5.2408
upperneck -0.254053 9.39224 -8.48197
head 0.824872 4.73001 -1.57448
rclavicle 3.04141e-014 4.09496e-014
rhumerus -29.5803 -15.7138 -86.6058
rradius 51.3083
rwrist 2.59278
rhand -16.3448 23.9979
rfingers 7.12502
rthumb 9.86751 -5.75086
lclavicle 3.04141e-014 4.09496e-014
lhumerus -384.434 -18.5601 -285.437
lradius 63.544
lwrist -6.58725
lhand -49.2161 -19.409
lfingers 7.12502
lthumb -21.8365 9.37898
rfemur -41.6882 -0.282916 11.8088
rtibia 56.141
rfoot -12.0394 10.7591
rtoes -13.6678
lfemur 6.97449 7.14297 -22.8805
ltibia 46.8813
lfoot -33.0105 2.14999
ltoes -30.5399
174
root -0.769635 17.2258 7.08867 -185.946 5.15999 174.661
lowerback 6.4902 -2.9996 -2.25544
upperback 16.8681 -0.16729 -3.60407
thorax 15.0696 1.35802 -2.4216
lowerneck -4.56863 6.41807 -5.03485
upperneck -0.126079 9.26501 -8.2308
head 0.90123 4.64858 -1.52002
rclavicle -1.92821e-014 -9.74045e-015
rhumerus -29.3617 -16.8132 -87.3797
rradius 49.9099
rwrist 2.25677
rhand -16.7032 24.0107
rfingers 7.12502
rthumb 9.52173 -5.7542
lclavicle -1.92821e-014 -9.74045e-015
lhumerus -384.97 -17.6201 -284.496
lradius 61.8022
lwrist -6.72647
lhand -49.2419 -20.0706
lfingers 7.12502
lthumb -21.8613 8.71447
rfemur -42.2829 -0.140208 11.5281
rtibia 56.5642
rfoot -12.2503 10.4457
rtoes -14.7017
lfemur 6.52474 7.75432 -23.1275
ltibia 47.1495
lfoot -33.8305 2.47825
ltoes -29.628
175
root -0.80647 17.1751 7.15905 -185.89 5.30392 174.456
lowerback 6.52919 -3.01601 -2.31906
upperback 16.8417 -0.204018 -3.61049
thorax 15.0113 1.32651 -2.39652
lowerneck -4.69035 6.3179 -4.86264
upperneck 0.0410849 9.1167 -7.95947
head 0.965125 4.5587 -1.45892
rclavicle 8.74653e-015 -1.86858e-014
rhumerus -29.291 -17.515 -88.1176
rradius 48.5711
rwrist 1.32884
rhand -17.1491 23.8805
rfingers 7.12502
rthumb 9.09151 -5.90355
lclavicle 8.74653e-015 -1.86858e-014
lhumerus -385.49 -16.7747 -283.574
lradius 60.0035
lwrist -6.98209
lhand -49.1871 -20.6355
lfingers 7.12502
lthumb -21.8086 8.15566
rfemur -42.9505 -0.0662289 11.2309
rtibia 57.0076
rfoot -12.3932 10.1076
rtoes -15.6705
lfemur 5.97378 8.32015 -23.3334
ltibia 47.5373
lfoot -34.4931 2.29771
ltoes -28.4941
176
root -0.841263 17.1252 7.22788 -185.838 5.43083 174.269
lowerback 6.56168 -3.02684 -2.37423
upperback 16.807 -0.236727 -3.61435
thorax 14.9462 1.29666 -2.3731
lowerneck -4.81548 6.21402 -4.64292
upperneck 0.20144 8.96299 -7.73362
head 1.03257 4.46737 -1.4202
rclavicle 8.34896e-015 6.95746e-015
rhumerus -29.2634 -17.8837 -88.8397
rradius 47.2918
rwrist -0.037465
rhand -17.4863 23.7633
rfingers 7.12502
rthumb 8.76607 -6.03462
lclavicle 8.34896e-015 6.95746e-015
lhumerus -385.916 -15.9891 -282.748
lradius 58.1438
lwrist -7.58699
lhand -49.1631 -20.9805
lfingers 7.12502
lthumb -21.7857 7.81335
rfemur -43.5847 0.0189152 10.9418
rtibia 57.3957
rfoot -12.5054 9.75264
rtoes -16.5659
lfemur 5.39889 8.87575 -23.453
ltibia 47.9461
lfoot -35.0113 1.60889
ltoes -26.8817
